<svg width="31" height="21" viewBox="0 0 31 21" fill="none" xmlns="http://www.w3.org/2000/svg">
<path d="M27.1668 1.7619H22.6599L22.1615 0.934998C22.0629 0.765236 21.8822 0.666665 21.6906 0.666665H9.64296C9.4513 0.666665 9.27058 0.765236 9.17201 0.934998L8.67368 1.7619H4.16678C3.26321 1.7619 2.52393 2.50119 2.52393 3.40476V16.5476C2.52393 16.8488 2.77035 17.0952 3.07154 17.0952H8.00011C8.3013 17.0952 8.54773 16.8488 8.54773 16.5476V16H3.61916V3.40476C3.61916 3.10357 3.86559 2.85714 4.16678 2.85714H8.98582C9.17749 2.85714 9.3582 2.75857 9.45677 2.58881L9.95511 1.7619H21.3784L21.8768 2.58881C21.9753 2.75857 22.156 2.85714 22.3477 2.85714H27.1668C27.4679 2.85714 27.7144 3.10357 27.7144 3.40476V16H22.7858V16.5476C22.7858 16.8488 23.0322 17.0952 23.3334 17.0952H28.262C28.5632 17.0952 28.8096 16.8488 28.8096 16.5476V3.40476C28.8096 2.50119 28.0703 1.7619 27.1668 1.7619Z" fill="#2E2E2E"/>
<path d="M26.619 4.5V16H23.8809V14.9047C23.8809 14.6036 23.6344 14.3571 23.3333 14.3571H7.99994C7.69875 14.3571 7.45233 14.6036 7.45233 14.9047V16H4.71423V4.5C4.71423 4.19881 4.96066 3.95238 5.26185 3.95238H26.0713C26.3725 3.95238 26.619 4.19881 26.619 4.5Z" fill="#2E2E2E"/>
<path d="M25.5238 16.5476V16H20.5953C20.2941 16 20.0476 16.2464 20.0476 16.5476V17.0952H11.2857V16.5476C11.2857 16.2464 11.0393 16 10.7381 16H8.54765V16.5476C8.54765 16.8488 8.30122 17.0952 8.00003 17.0952H10.1905V17.6428C10.1905 17.944 10.4369 18.1905 10.7381 18.1905H20.5953C20.8964 18.1905 21.1429 17.944 21.1429 17.6428V17.0952H26.0714C25.7702 17.0952 25.5238 16.8488 25.5238 16.5476ZM25.5238 16.5476V16H20.5953C20.2941 16 20.0476 16.2464 20.0476 16.5476V17.0952H11.2857V16.5476C11.2857 16.2464 11.0393 16 10.7381 16H8.54765V16.5476C8.54765 16.8488 8.30122 17.0952 8.00003 17.0952H10.1905V17.6428C10.1905 17.944 10.4369 18.1905 10.7381 18.1905H20.5953C20.8964 18.1905 21.1429 17.944 21.1429 17.6428V17.0952H26.0714C25.7702 17.0952 25.5238 16.8488 25.5238 16.5476ZM29.9048 18.1905C29.9048 19.094 29.1655 19.8333 28.2619 19.8333H3.07147C2.1679 19.8333 1.42861 19.094 1.42861 18.1905V17.0952H10.1905V17.6428C10.1905 17.944 10.4369 18.1905 10.7381 18.1905H20.5953C20.8964 18.1905 21.1429 17.944 21.1429 17.6428V17.0952H29.9048V18.1905ZM30.4524 16H20.5953C20.2941 16 20.0476 16.2464 20.0476 16.5476V17.0952H11.2857V16.5476C11.2857 16.2464 11.0393 16 10.7381 16H0.880992C0.579802 16 0.333374 16.2464 0.333374 16.5476V18.1905C0.333374 19.7019 1.56004 20.9285 3.07147 20.9285H28.2619C29.7733 20.9285 31 19.7019 31 18.1905V16.5476C31 16.2464 30.7536 16 30.4524 16ZM25.5238 16.5476V16H20.5953C20.2941 16 20.0476 16.2464 20.0476 16.5476V17.0952H11.2857V16.5476C11.2857 16.2464 11.0393 16 10.7381 16H8.54765V16.5476C8.54765 16.8488 8.30122 17.0952 8.00003 17.0952H10.1905V17.6428C10.1905 17.944 10.4369 18.1905 10.7381 18.1905H20.5953C20.8964 18.1905 21.1429 17.944 21.1429 17.6428V17.0952H26.0714C25.7702 17.0952 25.5238 16.8488 25.5238 16.5476ZM25.5238 16.5476V16H20.5953C20.2941 16 20.0476 16.2464 20.0476 16.5476V17.0952H11.2857V16.5476C11.2857 16.2464 11.0393 16 10.7381 16H8.54765V16.5476C8.54765 16.8488 8.30122 17.0952 8.00003 17.0952H10.1905V17.6428C10.1905 17.944 10.4369 18.1905 10.7381 18.1905H20.5953C20.8964 18.1905 21.1429 17.944 21.1429 17.6428V17.0952H26.0714C25.7702 17.0952 25.5238 16.8488 25.5238 16.5476Z" fill="#2E2E2E"/>
<path d="M4.71423 16H5.80947V16.5476C5.80947 16.8488 5.56304 17.0952 5.26185 17.0952C4.96066 17.0952 4.71423 16.8488 4.71423 16.5476V16Z" fill="#2E2E2E"/>
<path d="M26.619 16V16.5476C26.619 16.8488 26.3726 17.0952 26.0714 17.0952C25.7702 17.0952 25.5238 16.8488 25.5238 16.5476V16H26.619Z" fill="#2E2E2E"/>
</svg>
